Complete name                    : Giddh - The Vulture (1984) DvDrip 2CD Esub ~ Drama ~[RdY]
Format                           : AVI
Format/Info                      : Audio Video Interleave
File size                        : 1.37 GiB
Duration                         : 1h 53mn
Overall bit rate                 : 1 720 Kbps
Writing application              : VirtualDubMod 1.5.10.3 | 

Video
ID                               : 0
Format                           : MPEG-4 Visual
Format profile                   : Advanced Simple****************L5
Format settings, BVOP            : 2
Format settings, QPel            : Yes
Format settings, GMC             : No warppoints
Format settings, Matrix          : Default (MPEG)
Codec ID                         : XVID
Codec ID/Hint                    : XviD
Duration                         : 1h 53mn
Bit rate                         : 1 327 Kbps
Width                            : 656 pixels
Height                           : 480 pixels
Display aspect ratio             : 4:3
Frame rate                       : 23.976 fps
Color space                      : YUV
Chroma subsampling               : 4.2.0
Bit depth                        : 8 bits
Scan type                        : Interlaced
Scan order                       : Bottom Field First
Compression mode                 : Lossy
Bits/(Pixel*Frame)               : 0.176
Stream size                      : 1.05 GiB (77%)
Writing library                  : XviD 1.2.1 (UTC 2008-12-04)

Audio
ID                               : 1
Format                           : AC-3
Format/Info                      : Audio Coding 3
Mode extension                   : CM (complete main)
Codec ID                         : 2000
Duration                         : 1h 53mn
Bit rate mode                    : Constant
Bit rate                         : 384 Kbps
Channel(s)                       : 6 channels
Channel positions                : Front: L C R, Side: L R, LFE
Sampling rate                    : 48.0 KHz
Bit depth                        : 16 bits
Compression mode                 : Lossy
Stream size                      : 312 MiB (22%)
Alignment                        : Split accross interleaves
Interleave, duration             : 42 ms (1.00 video frame)
Interleave, preload duration     : 500 ms


Color
C

Release Date
1984

Genre
Drama

Producer
T S Ranga

Director
T S Ranga

Star Cast
Om Puri...... Bhashya
Smita Patil...... Ahnami
Nana Patekar...... Veerappan
Savita Bajaj...... Sundri
Vijay Kashyap...... Katrar
Achyut Potdar...... Desai
M K Raina...... Masterji

Singers
Ila Arun

Lyricist
Vasant Dev

Music Director
B V Karanth
